<svg width="1000" height="1000" viewBox="0 0 1000 1000" xmlns="http://www.w3.org/2000/svg"><defs/><path transform="matrix(0.9148740322595451 0 0 0.9148740322595451 4.3316238629191535 -29.586575164385756)" d="M 166.73746044875 554.07272137075 L 166.73746044875 567.32272137075 C 166.72369931731 569.99170757887 165.6435579539 572.54444166773 163.73746044875 574.41272137075 C 162.58872959652 575.54205552193 161.92209568636 577.07244627268 161.87746044875 578.68272137075 C 161.80466080729 582.20410300423 164.58669428554 585.1245683249 168.10746044875 585.22272137075 C 170.66239163152 585.26492077394 172.9913492812 583.76445511321 174.00900549573 581.42056305782 C 175.02666171026 579.07667100242 174.53275792949 576.35059323603 172.75746044875 574.51272137075 C 170.85096043784 572.63131355979 169.75320875279 570.08065523276 169.69746044875 567.40272137075 L 169.69746044875 554.13272137075 C 169.64450291664 551.04176921922 171.05755004552 548.10812019312 173.50746044875 546.22272137075 C 175.79630785055 544.53777135959 177.14760174612 541.86488233538 177.14746044875 539.02272137075 L 177.14746044875 539.02272137075 C 177.15564948019 536.95616524416 178.26466662314 535.05063750714 180.05746044875 534.02272137075 L 194.83746044875 525.53272137075 C 196.58927075095 524.57710275745 198.67692193794 524.45602632657 200.52746044875 525.20272137075 C 201.48409681157 525.5617051398 202.51387807265 525.68184628693 203.52746044875 525.55272137075 C 206.63392527952 525.17539415681 208.99849134533 522.58477164422 209.09140511085 519.45685434938 C 209.18431887636 516.32893705455 206.97769347988 513.60252878689 203.89910290643 513.0414765146 C 200.82051233298 512.4804242423 197.79395561631 514.25312052849 196.77746044875 517.21272137075 C 196.65578811969 517.57429181986 196.56545490342 517.94566170895 196.50746044875 518.32272137075 C 196.17519162391 520.29277249521 194.95935245996 522.00231604694 193.20746044875 522.96272137075 L 178.45746044875 531.43272137075 C 176.72269459969 532.43394139394 174.58033601006 532.41094648958 172.86746044875 531.37272137075 C 168.82197351944 528.89021621098 163.54168575848 530.00187359877 160.84051155255 533.90475129 C 158.13933734663 537.80762898124 158.95899888274 543.14104964275 162.70746044875 546.05272137075 C 165.21564102823 547.96158032475 166.70271839213 550.92097497945 166.73746044875 554.07272137075 Z"/><path fill="#777777" transform="matrix(0.9148740322595451 0 0 0.9148740322595451 4.3316238629191535 -29.586575164385756)" d="M 211.71746044875 556.92272137075 C 211.72144897254 554.50149084572 210.74209949363 552.18242271415 209.00383768589 550.49694976824 C 207.26557587815 548.81147682234 204.91741708321 547.90408899208 202.49746044875 547.98272137075 C 197.65622640064 548.160351637 193.82420281867 552.13823078784 193.82746044875 556.98272137075 C 193.83140113002 559.71758333329 195.09250250778 562.29878498366 197.24746044875 563.98272137075 C 199.7376739741 565.89437189018 201.21226814842 568.84356023881 201.24746044875 571.98272137075 L 201.24746044875 582.17272137075 C 201.30041798086 585.26367352228 199.88737085198 588.19732254838 197.43746044875 590.08272137075 C 195.14851193373 591.76541413494 193.79677751242 594.43681654252 193.79677751242 597.27772137075 C 193.79677751242 600.11862619898 195.14851193373 602.79002860656 197.43746044875 604.47272137075 C 199.88159714633 606.33919426821 201.30427312992 609.24752928674 201.27746044875 612.32272137075 L 201.27746044875 630.32272137075 C 201.27677016864 631.43407301232 200.68682485379 632.46171968979 199.72746044875 633.02272137075 L 199.55746044875 633.12272137075 C 198.502402777 633.73185920154 197.2025181205 633.73185920154 196.14746044875 633.12272137075 L 182.20746044875 625.37272137075 C 179.36358169215 623.77418825217 177.47030902307 620.89701010151 177.12746044875 617.65272137075 C 177.12746044875 617.55272137075 177.12746044875 617.45272137075 177.12746044875 617.35272137075 C 176.57389973634 613.57199214459 173.69336589596 610.55292936486 169.94278555751 609.82252532008 C 166.19220521905 609.0921212753 162.38925437774 610.80961368347 160.4574030082 614.10632313834 C 158.52555163866 617.40303259321 158.88596882639 621.56023294012 161.35636148691 624.47528063212 C 163.82675414743 627.39032832413 167.86854408885 628.42770450613 171.43746044875 627.06272137075 C 174.24605213561 625.95117386144 177.40285760927 626.14160760231 180.05746044875 627.58272137075 L 191.89746044875 634.32272137075 C 194.21014853595 635.55568542675 195.92405396958 637.67371172052 196.64746044875 640.19272137075 C 196.74714890862 640.5356911571 196.87422417528 640.87009975356 197.02746044875 641.19272137075 C 198.12466977119 643.70531133457 200.71881945272 645.22185802638 203.44654986656 644.94533784093 C 206.17428028041 644.66881765548 208.41130578811 642.66251675171 208.98195395915 639.98084986552 C 209.55260213018 637.29918297934 208.32627081413 634.55589335885 205.94746044875 633.19272137075 C 204.93694221061 632.64288449355 204.29933592989 631.59293403129 204.27746044875 630.44272137075 L 204.27746044875 612.32272137075 C 204.22450291664 609.23176921922 205.63755004552 606.29812019312 208.08746044875 604.41272137075 C 210.36872083701 602.7249965157 211.7144467347 600.05542539785 211.7144467347 597.21772137075 C 211.7144467347 594.38001734365 210.36872083701 591.7104462258 208.08746044875 590.02272137075 C 205.63755004552 588.13732254838 204.22450291664 585.20367352228 204.27746044875 582.11272137075 L 204.27746044875 572.02272137075 C 204.22450291664 568.93176921922 205.63755004552 565.99812019312 208.08746044875 564.11272137075 C 210.37348556066 562.43094125685 211.72159075895 559.76072737926 211.71746044875 556.92272137075 Z"/><path transform="matrix(0.9148740322595451 0 0 0.9148740322595451 4.3316238629191535 -29.586575164385756)" d="M 308.01746044875 554.07272137075 L 308.01746044875 567.32272137075 C 308.03122158019 569.99170757887 309.1113629436 572.54444166773 311.01746044875 574.41272137075 C 312.16467039822 575.54402190713 312.83401506543 577.07241855365 312.88746044875 578.68272137075 C 312.9547756783 582.20197192435 310.17583192386 585.11919377893 306.65746044875 585.22272137075 C 304.10525685623 585.2592809873 301.78080414543 583.75940387328 300.76243029088 581.41889228911 C 299.74405643633 579.07838070495 300.23103769368 576.35522793346 301.99746044875 574.51272137075 C 303.90396045966 572.63131355979 305.00171214471 570.08065523276 305.05746044875 567.40272137075 L 305.05746044875 554.13272137075 C 305.10960916978 551.04421553678 303.70107917945 548.11224916216 301.25746044875 546.22272137075 C 298.96481404698 544.54098796518 297.6124764956 541.86603456686 297.61746044875 539.02272137075 L 297.61746044875 539.02272137075 C 297.60515880013 536.95465928324 296.49260578247 535.04960274616 294.69746044875 534.02272137075 L 279.91746044875 525.53272137075 C 278.16914791411 524.57743840365 276.08463779008 524.45633130137 274.23746044875 525.20272137075 C 271.82652933889 526.10612666348 269.10862330714 525.4592721819 267.36313914017 523.56665099364 C 265.61765497319 521.67402980538 265.19239633581 518.91276397082 266.28754473829 516.58266098683 C 267.38269314076 514.25255800285 269.78003025999 512.81791217389 272.35106034554 512.95405268432 C 274.9220904311 513.09019319475 277.15451225273 514.76999280425 277.99746044875 517.20272137075 C 278.13052898095 517.58962221853 278.22760730901 517.9879781164 278.28746044875 518.39272137075 C 278.62054125992 520.36527687647 279.84072554689 522.07574669265 281.59746044875 523.03272137075 L 296.33746044875 531.43272137075 C 298.07222629781 532.43394139394 300.21458488744 532.41094648958 301.92746044875 531.37272137075 C 303.67889887789 530.30511880466 305.7462114599 529.87752081762 307.77746044875 530.16272137075 C 311.34034032372 530.63981651825 314.26981640764 533.20669113278 315.21083534217 536.67601616052 C 316.15185427669 540.14534118826 314.92093935815 543.84067931572 312.08746044875 546.05272137075 C 309.56778221665 547.9563513561 308.06624312984 550.91515810702 308.01746044875 554.07272137075 Z"/><path fill="#777777" transform="matrix(0.9148740322595451 0 0 0.9148740322595451 4.3316238629191535 -29.586575164385756)" d="M 263.03746044875 556.92272137075 C 263.03618574416 554.50057420143 264.0177798507 552.18157238068 265.75761079689 550.49640567873 C 267.49744174309 548.81123897678 269.84658764861 547.90415025498 272.26746044875 547.98272137075 C 277.1047622781 548.16559319044 280.93091590423 552.14196531921 280.92746044875 556.98272137075 C 280.92351976748 559.71758333329 279.66241838972 562.29878498366 277.50746044875 563.98272137075 C 275.01606503412 565.89339646369 273.54116327433 568.84319998328 273.50746044875 571.98272137075 L 273.50746044875 582.17272137075 C 273.45450291664 585.26367352228 274.86755004552 588.19732254838 277.31746044875 590.08272137075 C 279.59872083701 591.7704462258 280.9444467347 594.44001734365 280.9444467347 597.27772137075 C 280.9444467347 600.11542539785 279.59872083701 602.7849965157 277.31746044875 604.47272137075 C 274.86755004552 606.35812019312 273.45450291664 609.29176921922 273.50746044875 612.38272137075 L 273.50746044875 630.38272137075 C 273.508088103 631.49149447889 274.09342901373 632.51774153016 275.04746044875 633.08272137075 L 275.21746044875 633.18272137075 C 276.2725181205 633.79185920154 277.572402777 633.79185920154 278.62746044875 633.18272137075 L 292.57746044875 625.43272137075 C 295.41549984228 623.82793364313 297.30655723035 620.9541220219 297.65746044875 617.71272137075 C 297.65746044875 617.61272137075 297.65746044875 617.51272137075 297.65746044875 617.41272137075 C 298.22783121181 613.66859527141 301.09553615944 610.69014419009 304.81537425927 609.97838048901 C 308.53521235909 609.26661678792 312.29990149547 610.97600797104 314.21219884676 614.24509375996 C 316.12449619806 617.51417954889 315.76939352734 621.63350043997 313.32584744126 624.52709432652 C 310.88230135517 627.42068821307 306.88061209829 628.46058513192 303.33746044875 627.12272137075 C 300.53222131274 626.01150430597 297.37857364263 626.20196850905 294.72746044875 627.64272137075 L 282.85746044875 634.32272137075 C 280.54477236155 635.55568542675 278.83086692792 637.67371172052 278.10746044875 640.19272137075 C 278.01187030185 640.53704924392 277.88466269789 640.87180609643 277.72746044875 641.19272137075 C 276.63239824894 643.7094171854 274.03611324791 645.22962104764 271.30547331626 644.95299023111 C 268.57483338462 644.67635941459 266.33618132583 642.66634634273 265.76810176041 639.98116391834 C 265.20002219498 637.29598149394 266.4328188453 634.55154566698 268.81746044875 633.19272137075 C 269.82797868689 632.64288449355 270.46558496761 631.59293403129 270.48746044875 630.44272137075 L 270.48746044875 612.32272137075 C 270.54041798086 609.23176921922 269.12737085198 606.29812019312 266.67746044875 604.41272137075 C 264.38851193373 602.73002860656 263.03677751242 600.05862619898 263.03677751242 597.21772137075 C 263.03677751242 594.37681654252 264.38851193373 591.70541413494 266.67746044875 590.02272137075 C 269.12737085198 588.13732254838 270.54041798086 585.20367352228 270.48746044875 582.11272137075 L 270.48746044875 572.02272137075 C 270.54041798086 568.93176921922 269.12737085198 565.99812019312 266.67746044875 564.11272137075 C 264.38639114523 562.43414603563 263.03404849851 559.76289778566 263.03746044875 556.92272137075 Z"/><path transform="matrix(0.9148740322595451 0 0 0.9148740322595451 4.3316238629191535 -29.586575164385756)" d="M 242.68746044875 586.04272137075 C 244.9329528105 584.3559826131 246.25413125878 581.71115929658 246.25413125878 578.90272137075 C 246.25413125878 576.09428344492 244.9329528105 573.4494601284 242.68746044875 571.76272137075 C 240.28521071434 569.86433515907 238.90589792544 566.95409611118 238.95746044875 563.89272137075 L 238.95746044875 550.38272137075 C 239.02945104086 547.75246753698 240.10244256368 545.24882065039 241.95746044875 543.38272137075 C 244.2370719353 540.95767363771 244.2370719353 537.17776910379 241.95746044875 534.75272137075 C 240.103294084 532.8860475498 239.03045434341 530.38275482174 238.95746044875 527.75272137075 L 238.95746044875 514.08272137075 C 238.98432682391 510.97660835652 240.42785734776 508.05272255056 242.87746044875 506.14272137075 C 245.01740919098 504.45072673957 246.26316463465 501.87075984438 246.25746044875 499.14272137075 C 246.07333991883 494.39167254699 242.331712416 490.54647058042 237.58746044875 490.23272137075 C 233.69034970449 490.11108776585 230.16291570731 492.52638211541 228.86704064425 496.20374186227 C 227.57116558119 499.88110160912 228.80506885251 503.9742568855 231.91746044875 506.32272137075 C 234.32844193297 508.21509162285 235.71285204736 511.12827547319 235.65746044875 514.19272137075 L 235.65746044875 527.69272137075 C 235.58047569265 530.3218762026 234.50823825381 532.82376355989 232.65746044875 534.69272137075 C 230.3778489622 537.11776910379 230.3778489622 540.89767363771 232.65746044875 543.32272137075 C 234.50823825381 545.19167918161 235.58047569265 547.6935665389 235.65746044875 550.32272137075 L 235.65746044875 563.83272137075 C 235.70972854423 566.89649161054 234.32594545107 569.80835603385 231.91746044875 571.70272137075 C 229.67570531239 573.39187533387 228.3574232739 576.03581788069 228.3574232739 578.84272137075 C 228.3574232739 581.64962486081 229.67570531239 584.29356740763 231.91746044875 585.98272137075 C 234.32594545107 587.87708670765 235.70972854423 590.78895113096 235.65746044875 593.85272137075 L 235.65746044875 607.42272137075 C 235.58246666908 610.05231493059 234.50992904058 612.55490273041 232.65746044875 614.42272137075 C 230.3765473373 616.85110985843 230.3765473373 620.63433288307 232.65746044875 623.06272137075 C 234.50992904058 624.93054001109 235.58246666908 627.43312781091 235.65746044875 630.06272137075 L 235.65746044875 643.65272137075 C 235.62755451489 646.7553143648 234.18433154781 649.67489552016 231.73746044875 651.58272137075 C 229.5998882214 653.27662030174 228.35472543489 655.85535980043 228.35746044875 658.58272137075 C 228.40233161635 663.39229428903 232.22090487573 667.31657199849 237.02746044875 667.49272137075 C 240.92396530873 667.6174911233 244.45203961999 665.20292572369 245.7464288473 661.52557965034 C 247.04081807461 657.84823357698 245.80302624735 653.75613071817 242.68746044875 651.41272137075 C 240.28521071434 649.51433515907 238.90589792544 646.60409611118 238.95746044875 643.54272137075 L 238.95746044875 630.14272137075 C 239.02743767673 627.512025895 240.10073422699 625.00766727773 241.95746044875 623.14272137075 C 244.2383735602 620.71433288307 244.2383735602 616.93110985843 241.95746044875 614.50272137075 C 240.10073422699 612.63777546377 239.02743767673 610.1334168465 238.95746044875 607.50272137075 L 238.95746044875 593.91272137075 C 238.90589792544 590.85134663032 240.28521071434 587.94110758243 242.68746044875 586.04272137075 Z"/><path id="text" transform="matrix(0.6366762297779001 0 0 0.6366762297779001 208.87082037311419 29.026830013732088)" d="M 164.13042064795 724.64640733064 L 164.13042064795 654.82822551246 L 172.58496610249 654.82822551246 L 172.58496610249 689.46458914882 L 173.40314792067 689.46458914882 L 204.76678428431 654.82822551246 L 215.81223882976 654.82822551246 L 186.49405701158 686.32822551246 L 215.81223882976 724.64640733064 L 205.58496610249 724.64640733064 L 181.31223882976 692.19186187609 L 172.58496610249 702.01004369428 L 172.58496610249 724.64640733064 L 164.13042064795 724.64640733064 Z M 229.58496610249 724.64640733064 L 220.72132973885 724.64640733064 L 246.35769337522 654.82822551246 L 255.08496610249 654.82822551246 L 280.72132973885 724.64640733064 L 271.85769337522 724.64640733064 L 250.99405701158 665.87368005791 L 250.44860246613 665.87368005791 L 229.58496610249 724.64640733064 Z M 232.85769337522 697.37368005791 L 268.58496610249 697.37368005791 L 268.58496610249 704.87368005791 L 232.85769337522 704.87368005791 L 232.85769337522 697.37368005791 Z M 300.08496610249 654.82822551246 L 300.08496610249 724.64640733064 L 291.63042064795 724.64640733064 L 291.63042064795 654.82822551246 L 300.08496610249 654.82822551246 Z M 314.6758751934 724.64640733064 L 314.6758751934 718.51004369428 L 352.31223882976 662.32822551246 L 314.26678428431 662.32822551246 L 314.26678428431 654.82822551246 L 362.40314792067 654.82822551246 L 362.40314792067 660.96458914882 L 324.76678428431 717.14640733064 L 362.81223882976 717.14640733064 L 362.81223882976 724.64640733064 L 314.6758751934 724.64640733064 Z M 376.99405701158 724.64640733064 L 376.99405701158 654.82822551246 L 419.13042064795 654.82822551246 L 419.13042064795 662.32822551246 L 385.44860246613 662.32822551246 L 385.44860246613 685.91913460337 L 416.94860246613 685.91913460337 L 416.94860246613 693.41913460337 L 385.44860246613 693.41913460337 L 385.44860246613 717.14640733064 L 419.6758751934 717.14640733064 L 419.6758751934 724.64640733064 L 376.99405701158 724.64640733064 Z M 489.76678428431 654.82822551246 L 489.76678428431 724.64640733064 L 481.58496610249 724.64640733064 L 443.53951155704 669.82822551246 L 442.85769337522 669.82822551246 L 442.85769337522 724.64640733064 L 434.40314792067 724.64640733064 L 434.40314792067 654.82822551246 L 442.58496610249 654.82822551246 L 480.76678428431 709.782770967 L 481.44860246613 709.782770967 L 481.44860246613 654.82822551246 L 489.76678428431 654.82822551246 Z"/><path id="text" transform="matrix(0.31833811488895003 0 0 0.31833811488895003 211.56220996544283 92.30377398701779)" d="M 319.80634129589 1449.29281466128 L 319.80634129589 1379.4746328431 L 361.66997765952 1379.4746328431 L 361.66997765952 1386.9746328431 L 328.26088675043 1386.9746328431 L 328.26088675043 1410.56554193401 L 358.53361402316 1410.56554193401 L 358.53361402316 1418.06554193401 L 328.26088675043 1418.06554193401 L 328.26088675043 1449.29281466128 L 319.80634129589 1449.29281466128 Z M 439.83361402316 1414.38372375219 C 439.83361402316 1421.74736011583 438.50406856861 1428.11099647946 435.84497765952 1433.4746328431 C 433.18588675043 1438.83826920673 429.5381594777 1442.9746328431 424.90179584134 1445.88372375219 C 420.26543220498 1448.79281466128 414.96997765952 1450.24736011583 409.01543220498 1450.24736011583 C 403.06088675043 1450.24736011583 397.76543220498 1448.79281466128 393.12906856861 1445.88372375219 C 388.49270493225 1442.9746328431 384.84497765952 1438.83826920673 382.18588675043 1433.4746328431 C 379.52679584134 1428.11099647946 378.19725038679 1421.74736011583 378.19725038679 1414.38372375219 C 378.19725038679 1407.02008738855 379.52679584134 1400.65645102492 382.18588675043 1395.29281466128 C 384.84497765952 1389.92917829764 388.49270493225 1385.79281466128 393.12906856861 1382.88372375219 C 397.76543220498 1379.9746328431 403.06088675043 1378.52008738855 409.01543220498 1378.52008738855 C 414.96997765952 1378.52008738855 420.26543220498 1379.9746328431 424.90179584134 1382.88372375219 C 429.5381594777 1385.79281466128 433.18588675043 1389.92917829764 435.84497765952 1395.29281466128 C 438.50406856861 1400.65645102492 439.83361402316 1407.02008738855 439.83361402316 1414.38372375219 Z M 431.65179584134 1414.38372375219 C 431.65179584134 1408.33826920673 430.64611402316 1403.23599647946 428.63475038679 1399.07690557037 C 426.62338675043 1394.91781466128 423.90747765952 1391.77008738855 420.48702311407 1389.63372375219 C 417.06656856861 1387.49736011583 413.24270493225 1386.42917829764 409.01543220498 1386.42917829764 C 404.7881594777 1386.42917829764 400.96429584134 1387.49736011583 397.54384129589 1389.63372375219 C 394.12338675043 1391.77008738855 391.40747765952 1394.91781466128 389.39611402316 1399.07690557037 C 387.38475038679 1403.23599647946 386.37906856861 1408.33826920673 386.37906856861 1414.38372375219 C 386.37906856861 1420.42917829764 387.38475038679 1425.53145102492 389.39611402316 1429.69054193401 C 391.40747765952 1433.8496328431 394.12338675043 1436.99736011583 397.54384129589 1439.13372375219 C 400.96429584134 1441.27008738855 404.7881594777 1442.33826920673 409.01543220498 1442.33826920673 C 413.24270493225 1442.33826920673 417.06656856861 1441.27008738855 420.48702311407 1439.13372375219 C 423.90747765952 1436.99736011583 426.62338675043 1433.8496328431 428.63475038679 1429.69054193401 C 430.64611402316 1425.53145102492 431.65179584134 1420.42917829764 431.65179584134 1414.38372375219 Z M 514.99725038679 1401.29281466128 L 506.54270493225 1401.29281466128 C 506.04270493225 1398.86099647946 505.17338675043 1396.7246328431 503.93475038679 1394.88372375219 C 502.69611402316 1393.04281466128 501.19611402316 1391.49167829764 499.43475038679 1390.23031466128 C 497.67338675043 1388.96895102492 495.72452311407 1388.02008738855 493.5881594777 1387.38372375219 C 491.45179584134 1386.74736011583 489.22452311407 1386.42917829764 486.90634129589 1386.42917829764 C 482.67906856861 1386.42917829764 478.85520493225 1387.49736011583 475.43475038679 1389.63372375219 C 472.01429584134 1391.77008738855 469.29838675043 1394.91781466128 467.28702311407 1399.07690557037 C 465.2756594777 1403.23599647946 464.26997765952 1408.33826920673 464.26997765952 1414.38372375219 C 464.26997765952 1420.42917829764 465.2756594777 1425.53145102492 467.28702311407 1429.69054193401 C 469.29838675043 1433.8496328431 472.01429584134 1436.99736011583 475.43475038679 1439.13372375219 C 478.85520493225 1441.27008738855 482.67906856861 1442.33826920673 486.90634129589 1442.33826920673 C 489.22452311407 1442.33826920673 491.45179584134 1442.02008738855 493.5881594777 1441.38372375219 C 495.72452311407 1440.74736011583 497.67338675043 1439.79849647946 499.43475038679 1438.5371328431 C 501.19611402316 1437.27576920673 502.69611402316 1435.71895102492 503.93475038679 1433.86667829764 C 505.17338675043 1432.01440557037 506.04270493225 1429.88372375219 506.54270493225 1427.4746328431 L 514.99725038679 1427.4746328431 C 514.36088675043 1431.04281466128 513.20179584134 1434.23599647946 511.51997765952 1437.05417829764 C 509.8381594777 1439.87236011583 507.74725038679 1442.26440557037 505.24725038679 1444.23031466128 C 502.74725038679 1446.19622375219 499.94611402316 1447.69054193401 496.84384129589 1448.71326920673 C 493.74156856861 1449.73599647946 490.42906856861 1450.24736011583 486.90634129589 1450.24736011583 C 480.95179584134 1450.24736011583 475.65634129589 1448.79281466128 471.01997765952 1445.88372375219 C 466.38361402316 1442.9746328431 462.73588675043 1438.83826920673 460.07679584134 1433.4746328431 C 457.41770493225 1428.11099647946 456.0881594777 1421.74736011583 456.0881594777 1414.38372375219 C 456.0881594777 1407.02008738855 457.41770493225 1400.65645102492 460.07679584134 1395.29281466128 C 462.73588675043 1389.92917829764 466.38361402316 1385.79281466128 471.01997765952 1382.88372375219 C 475.65634129589 1379.9746328431 480.95179584134 1378.52008738855 486.90634129589 1378.52008738855 C 490.42906856861 1378.52008738855 493.74156856861 1379.03145102492 496.84384129589 1380.05417829764 C 499.94611402316 1381.07690557037 502.74725038679 1382.57122375219 505.24725038679 1384.5371328431 C 507.74725038679 1386.50304193401 509.8381594777 1388.88940557037 511.51997765952 1391.69622375219 C 513.20179584134 1394.50304193401 514.36088675043 1397.70190557037 514.99725038679 1401.29281466128 Z M 579.25179584134 1379.4746328431 L 587.70634129589 1379.4746328431 L 587.70634129589 1425.70190557037 C 587.70634129589 1430.4746328431 586.58702311407 1434.73031466128 584.34838675043 1438.46895102492 C 582.10975038679 1442.20758738855 578.95634129589 1445.15076920673 574.8881594777 1447.29849647946 C 570.81997765952 1449.44622375219 566.04725038679 1450.52008738855 560.56997765952 1450.52008738855 C 555.09270493225 1450.52008738855 550.31997765952 1449.44622375219 546.25179584134 1447.29849647946 C 542.18361402316 1445.15076920673 539.03020493225 1442.20758738855 536.79156856861 1438.46895102492 C 534.55293220498 1434.73031466128 533.43361402316 1430.4746328431 533.43361402316 1425.70190557037 L 533.43361402316 1379.4746328431 L 541.8881594777 1379.4746328431 L 541.8881594777 1425.02008738855 C 541.8881594777 1428.42917829764 542.6381594777 1431.45758738855 544.1381594777 1434.10531466128 C 545.6381594777 1436.75304193401 547.78020493225 1438.83258738855 550.56429584134 1440.34395102492 C 553.34838675043 1441.85531466128 556.68361402316 1442.61099647946 560.56997765952 1442.61099647946 C 564.45634129589 1442.61099647946 567.79725038679 1441.85531466128 570.59270493225 1440.34395102492 C 573.3881594777 1438.83258738855 575.53020493225 1436.75304193401 577.01884129589 1434.10531466128 C 578.50747765952 1431.45758738855 579.25179584134 1428.42917829764 579.25179584134 1425.02008738855 L 579.25179584134 1379.4746328431 Z M 647.59725038679 1396.92917829764 C 647.1881594777 1393.4746328431 645.52906856861 1390.79281466128 642.61997765952 1388.88372375219 C 639.71088675043 1386.9746328431 636.14270493225 1386.02008738855 631.91543220498 1386.02008738855 C 628.82452311407 1386.02008738855 626.1256594777 1386.52008738855 623.81884129589 1387.52008738855 C 621.51202311407 1388.52008738855 619.71656856861 1389.89508738855 618.43247765952 1391.64508738855 C 617.14838675043 1393.39508738855 616.50634129589 1395.38372375219 616.50634129589 1397.61099647946 C 616.50634129589 1399.4746328431 616.95520493225 1401.07122375219 617.85293220498 1402.40076920673 C 618.7506594777 1403.73031466128 619.90406856861 1404.83258738855 621.3131594777 1405.70758738855 C 622.72225038679 1406.58258738855 624.19952311407 1407.29849647946 625.74497765952 1407.85531466128 C 627.29043220498 1408.4121328431 628.71088675043 1408.86099647946 630.00634129589 1409.20190557037 L 637.09725038679 1411.11099647946 C 638.91543220498 1411.58826920673 640.94384129589 1412.24736011583 643.18247765952 1413.08826920673 C 645.42111402316 1413.92917829764 647.56884129589 1415.07122375219 649.6256594777 1416.51440557037 C 651.68247765952 1417.95758738855 653.38134129589 1419.80417829764 654.72225038679 1422.05417829764 C 656.0631594777 1424.30417829764 656.73361402316 1427.06554193401 656.73361402316 1430.33826920673 C 656.73361402316 1434.11099647946 655.7506594777 1437.52008738855 653.78475038679 1440.56554193401 C 651.81884129589 1443.61099647946 648.95520493225 1446.03145102492 645.19384129589 1447.82690557037 C 641.43247765952 1449.62236011583 636.86997765952 1450.52008738855 631.50634129589 1450.52008738855 C 626.50634129589 1450.52008738855 622.18247765952 1449.71326920673 618.53475038679 1448.0996328431 C 614.88702311407 1446.48599647946 612.02338675043 1444.23599647946 609.94384129589 1441.3496328431 C 607.86429584134 1438.46326920673 606.6881594777 1435.11099647946 606.41543220498 1431.29281466128 L 615.14270493225 1431.29281466128 C 615.36997765952 1433.92917829764 616.26202311407 1436.10531466128 617.81884129589 1437.82122375219 C 619.3756594777 1439.5371328431 621.35293220498 1440.80986011583 623.7506594777 1441.63940557037 C 626.14838675043 1442.46895102492 628.73361402316 1442.88372375219 631.50634129589 1442.88372375219 C 634.73361402316 1442.88372375219 637.63134129589 1442.35531466128 640.19952311407 1441.29849647946 C 642.76770493225 1440.24167829764 644.80179584134 1438.76440557037 646.30179584134 1436.86667829764 C 647.80179584134 1434.96895102492 648.55179584134 1432.74736011583 648.55179584134 1430.20190557037 C 648.55179584134 1427.88372375219 647.90406856861 1425.99736011583 646.60861402316 1424.54281466128 C 645.3131594777 1423.08826920673 643.60861402316 1421.90645102492 641.49497765952 1420.99736011583 C 639.38134129589 1420.08826920673 637.09725038679 1419.29281466128 634.64270493225 1418.61099647946 L 626.05179584134 1416.15645102492 C 620.59725038679 1414.58826920673 616.27906856861 1412.3496328431 613.09725038679 1409.44054193401 C 609.91543220498 1406.53145102492 608.32452311407 1402.7246328431 608.32452311407 1398.02008738855 C 608.32452311407 1394.11099647946 609.38702311407 1390.69622375219 611.51202311407 1387.77576920673 C 613.63702311407 1384.85531466128 616.5006594777 1382.58258738855 620.10293220498 1380.95758738855 C 623.70520493225 1379.33258738855 627.73361402316 1378.52008738855 632.1881594777 1378.52008738855 C 636.6881594777 1378.52008738855 640.6881594777 1379.32122375219 644.1881594777 1380.92349647946 C 647.6881594777 1382.52576920673 650.46656856861 1384.71326920673 652.52338675043 1387.48599647946 C 654.58020493225 1390.25872375219 655.66543220498 1393.40645102492 655.77906856861 1396.92917829764 L 647.59725038679 1396.92917829764 Z M 766.15179584134 1414.38372375219 C 766.15179584134 1421.74736011583 764.82225038679 1428.11099647946 762.1631594777 1433.4746328431 C 759.50406856861 1438.83826920673 755.85634129589 1442.9746328431 751.21997765952 1445.88372375219 C 746.58361402316 1448.79281466128 741.2881594777 1450.24736011583 735.33361402316 1450.24736011583 C 729.37906856861 1450.24736011583 724.08361402316 1448.79281466128 719.44725038679 1445.88372375219 C 714.81088675043 1442.9746328431 711.1631594777 1438.83826920673 708.50406856861 1433.4746328431 C 705.84497765952 1428.11099647946 704.51543220498 1421.74736011583 704.51543220498 1414.38372375219 C 704.51543220498 1407.02008738855 705.84497765952 1400.65645102492 708.50406856861 1395.29281466128 C 711.1631594777 1389.92917829764 714.81088675043 1385.79281466128 719.44725038679 1382.88372375219 C 724.08361402316 1379.9746328431 729.37906856861 1378.52008738855 735.33361402316 1378.52008738855 C 741.2881594777 1378.52008738855 746.58361402316 1379.9746328431 751.21997765952 1382.88372375219 C 755.85634129589 1385.79281466128 759.50406856861 1389.92917829764 762.1631594777 1395.29281466128 C 764.82225038679 1400.65645102492 766.15179584134 1407.02008738855 766.15179584134 1414.38372375219 Z M 757.96997765952 1414.38372375219 C 757.96997765952 1408.33826920673 756.96429584134 1403.23599647946 754.95293220498 1399.07690557037 C 752.94156856861 1394.91781466128 750.2256594777 1391.77008738855 746.80520493225 1389.63372375219 C 743.38475038679 1387.49736011583 739.56088675043 1386.42917829764 735.33361402316 1386.42917829764 C 731.10634129589 1386.42917829764 727.28247765952 1387.49736011583 723.86202311407 1389.63372375219 C 720.44156856861 1391.77008738855 717.7256594777 1394.91781466128 715.71429584134 1399.07690557037 C 713.70293220498 1403.23599647946 712.69725038679 1408.33826920673 712.69725038679 1414.38372375219 C 712.69725038679 1420.42917829764 713.70293220498 1425.53145102492 715.71429584134 1429.69054193401 C 717.7256594777 1433.8496328431 720.44156856861 1436.99736011583 723.86202311407 1439.13372375219 C 727.28247765952 1441.27008738855 731.10634129589 1442.33826920673 735.33361402316 1442.33826920673 C 739.56088675043 1442.33826920673 743.38475038679 1441.27008738855 746.80520493225 1439.13372375219 C 750.2256594777 1436.99736011583 752.94156856861 1433.8496328431 754.95293220498 1429.69054193401 C 756.96429584134 1425.53145102492 757.96997765952 1420.42917829764 757.96997765952 1414.38372375219 Z M 840.49725038679 1379.4746328431 L 840.49725038679 1449.29281466128 L 832.31543220498 1449.29281466128 L 794.26997765952 1394.4746328431 L 793.5881594777 1394.4746328431 L 793.5881594777 1449.29281466128 L 785.13361402316 1449.29281466128 L 785.13361402316 1379.4746328431 L 793.31543220498 1379.4746328431 L 831.49725038679 1434.42917829764 L 832.17906856861 1434.42917829764 L 832.17906856861 1379.4746328431 L 840.49725038679 1379.4746328431 Z M 932.1881594777 1396.92917829764 C 931.77906856861 1393.4746328431 930.11997765952 1390.79281466128 927.21088675043 1388.88372375219 C 924.30179584134 1386.9746328431 920.73361402316 1386.02008738855 916.50634129589 1386.02008738855 C 913.41543220498 1386.02008738855 910.71656856861 1386.52008738855 908.40975038679 1387.52008738855 C 906.10293220498 1388.52008738855 904.30747765952 1389.89508738855 903.02338675043 1391.64508738855 C 901.73929584134 1393.39508738855 901.09725038679 1395.38372375219 901.09725038679 1397.61099647946 C 901.09725038679 1399.4746328431 901.54611402316 1401.07122375219 902.44384129589 1402.40076920673 C 903.34156856861 1403.73031466128 904.49497765952 1404.83258738855 905.90406856861 1405.70758738855 C 907.3131594777 1406.58258738855 908.79043220498 1407.29849647946 910.33588675043 1407.85531466128 C 911.88134129589 1408.4121328431 913.30179584134 1408.86099647946 914.59725038679 1409.20190557037 L 921.6881594777 1411.11099647946 C 923.50634129589 1411.58826920673 925.53475038679 1412.24736011583 927.77338675043 1413.08826920673 C 930.01202311407 1413.92917829764 932.15975038679 1415.07122375219 934.21656856861 1416.51440557037 C 936.27338675043 1417.95758738855 937.97225038679 1419.80417829764 939.3131594777 1422.05417829764 C 940.65406856861 1424.30417829764 941.32452311407 1427.06554193401 941.32452311407 1430.33826920673 C 941.32452311407 1434.11099647946 940.34156856861 1437.52008738855 938.3756594777 1440.56554193401 C 936.40975038679 1443.61099647946 933.54611402316 1446.03145102492 929.78475038679 1447.82690557037 C 926.02338675043 1449.62236011583 921.46088675043 1450.52008738855 916.09725038679 1450.52008738855 C 911.09725038679 1450.52008738855 906.77338675043 1449.71326920673 903.1256594777 1448.0996328431 C 899.47793220498 1446.48599647946 896.61429584134 1444.23599647946 894.53475038679 1441.3496328431 C 892.45520493225 1438.46326920673 891.27906856861 1435.11099647946 891.00634129589 1431.29281466128 L 899.73361402316 1431.29281466128 C 899.96088675043 1433.92917829764 900.85293220498 1436.10531466128 902.40975038679 1437.82122375219 C 903.96656856861 1439.5371328431 905.94384129589 1440.80986011583 908.34156856861 1441.63940557037 C 910.73929584134 1442.46895102492 913.32452311407 1442.88372375219 916.09725038679 1442.88372375219 C 919.32452311407 1442.88372375219 922.22225038679 1442.35531466128 924.79043220498 1441.29849647946 C 927.35861402316 1440.24167829764 929.39270493225 1438.76440557037 930.89270493225 1436.86667829764 C 932.39270493225 1434.96895102492 933.14270493225 1432.74736011583 933.14270493225 1430.20190557037 C 933.14270493225 1427.88372375219 932.49497765952 1425.99736011583 931.19952311407 1424.54281466128 C 929.90406856861 1423.08826920673 928.19952311407 1421.90645102492 926.08588675043 1420.99736011583 C 923.97225038679 1420.08826920673 921.6881594777 1419.29281466128 919.23361402316 1418.61099647946 L 910.64270493225 1416.15645102492 C 905.1881594777 1414.58826920673 900.86997765952 1412.3496328431 897.6881594777 1409.44054193401 C 894.50634129589 1406.53145102492 892.91543220498 1402.7246328431 892.91543220498 1398.02008738855 C 892.91543220498 1394.11099647946 893.97793220498 1390.69622375219 896.10293220498 1387.77576920673 C 898.22793220498 1384.85531466128 901.09156856861 1382.58258738855 904.69384129589 1380.95758738855 C 908.29611402316 1379.33258738855 912.32452311407 1378.52008738855 916.77906856861 1378.52008738855 C 921.27906856861 1378.52008738855 925.27906856861 1379.32122375219 928.77906856861 1380.92349647946 C 932.27906856861 1382.52576920673 935.05747765952 1384.71326920673 937.11429584134 1387.48599647946 C 939.17111402316 1390.25872375219 940.25634129589 1393.40645102492 940.36997765952 1396.92917829764 L 932.1881594777 1396.92917829764 Z M 960.03361402316 1379.4746328431 L 970.12452311407 1379.4746328431 L 993.85179584134 1437.42917829764 L 994.66997765952 1437.42917829764 L 1018.39725038679 1379.4746328431 L 1028.4881594777 1379.4746328431 L 1028.4881594777 1449.29281466128 L 1020.57906856861 1449.29281466128 L 1020.57906856861 1396.24736011583 L 1019.89725038679 1396.24736011583 L 998.07906856861 1449.29281466128 L 990.44270493225 1449.29281466128 L 968.62452311407 1396.24736011583 L 967.94270493225 1396.24736011583 L 967.94270493225 1449.29281466128 L 960.03361402316 1449.29281466128 L 960.03361402316 1379.4746328431 Z M 1053.06088675043 1449.29281466128 L 1044.19725038679 1449.29281466128 L 1069.83361402316 1379.4746328431 L 1078.56088675043 1379.4746328431 L 1104.19725038679 1449.29281466128 L 1095.33361402316 1449.29281466128 L 1074.46997765952 1390.52008738855 L 1073.92452311407 1390.52008738855 L 1053.06088675043 1449.29281466128 Z M 1056.33361402316 1422.02008738855 L 1092.06088675043 1422.02008738855 L 1092.06088675043 1429.52008738855 L 1056.33361402316 1429.52008738855 L 1056.33361402316 1422.02008738855 Z M 1119.90634129589 1449.29281466128 L 1119.90634129589 1379.4746328431 L 1128.36088675043 1379.4746328431 L 1128.36088675043 1441.79281466128 L 1160.81543220498 1441.79281466128 L 1160.81543220498 1449.29281466128 L 1119.90634129589 1449.29281466128 Z M 1178.70634129589 1449.29281466128 L 1178.70634129589 1379.4746328431 L 1187.16088675043 1379.4746328431 L 1187.16088675043 1441.79281466128 L 1219.61543220498 1441.79281466128 L 1219.61543220498 1449.29281466128 L 1178.70634129589 1449.29281466128 Z M 1277.76088675043 1379.4746328431 L 1277.76088675043 1449.29281466128 L 1269.30634129589 1449.29281466128 L 1269.30634129589 1379.4746328431 L 1277.76088675043 1379.4746328431 Z M 1299.46997765952 1379.4746328431 L 1309.56088675043 1379.4746328431 L 1333.2881594777 1437.42917829764 L 1334.10634129589 1437.42917829764 L 1357.83361402316 1379.4746328431 L 1367.92452311407 1379.4746328431 L 1367.92452311407 1449.29281466128 L 1360.01543220498 1449.29281466128 L 1360.01543220498 1396.24736011583 L 1359.33361402316 1396.24736011583 L 1337.51543220498 1449.29281466128 L 1329.87906856861 1449.29281466128 L 1308.06088675043 1396.24736011583 L 1307.37906856861 1396.24736011583 L 1307.37906856861 1449.29281466128 L 1299.46997765952 1449.29281466128 L 1299.46997765952 1379.4746328431 Z M 1389.63361402316 1449.29281466128 L 1389.63361402316 1379.4746328431 L 1413.22452311407 1379.4746328431 C 1418.67906856861 1379.4746328431 1423.15634129589 1380.40076920673 1426.65634129589 1382.25304193401 C 1430.15634129589 1384.10531466128 1432.74725038679 1386.64508738855 1434.42906856861 1389.87236011583 C 1436.11088675043 1393.0996328431 1436.95179584134 1396.77008738855 1436.95179584134 1400.88372375219 C 1436.95179584134 1404.99736011583 1436.11088675043 1408.64508738855 1434.42906856861 1411.82690557037 C 1432.74725038679 1415.00872375219 1430.16770493225 1417.50304193401 1426.69043220498 1419.30986011583 C 1423.2131594777 1421.11667829764 1418.76997765952 1422.02008738855 1413.36088675043 1422.02008738855 L 1394.26997765952 1422.02008738855 L 1394.26997765952 1414.38372375219 L 1413.0881594777 1414.38372375219 C 1416.81543220498 1414.38372375219 1419.82111402316 1413.83826920673 1422.10520493225 1412.74736011583 C 1424.38929584134 1411.65645102492 1426.04838675043 1410.10531466128 1427.08247765952 1408.09395102492 C 1428.11656856861 1406.08258738855 1428.63361402316 1403.67917829764 1428.63361402316 1400.88372375219 C 1428.63361402316 1398.08826920673 1428.11088675043 1395.64508738855 1427.06543220498 1393.55417829764 C 1426.01997765952 1391.46326920673 1424.34952311407 1389.84395102492 1422.05406856861 1388.69622375219 C 1419.75861402316 1387.54849647946 1416.72452311407 1386.9746328431 1412.95179584134 1386.9746328431 L 1398.0881594777 1386.9746328431 L 1398.0881594777 1449.29281466128 L 1389.63361402316 1449.29281466128 Z M 1422.49725038679 1417.92917829764 L 1439.67906856861 1449.29281466128 L 1429.86088675043 1449.29281466128 L 1412.95179584134 1417.92917829764 L 1422.49725038679 1417.92917829764 Z M 1514.70634129589 1414.38372375219 C 1514.70634129589 1421.74736011583 1513.37679584134 1428.11099647946 1510.71770493225 1433.4746328431 C 1508.05861402316 1438.83826920673 1504.41088675043 1442.9746328431 1499.77452311407 1445.88372375219 C 1495.1381594777 1448.79281466128 1489.84270493225 1450.24736011583 1483.8881594777 1450.24736011583 C 1477.93361402316 1450.24736011583 1472.6381594777 1448.79281466128 1468.00179584134 1445.88372375219 C 1463.36543220498 1442.9746328431 1459.71770493225 1438.83826920673 1457.05861402316 1433.4746328431 C 1454.39952311407 1428.11099647946 1453.06997765952 1421.74736011583 1453.06997765952 1414.38372375219 C 1453.06997765952 1407.02008738855 1454.39952311407 1400.65645102492 1457.05861402316 1395.29281466128 C 1459.71770493225 1389.92917829764 1463.36543220498 1385.79281466128 1468.00179584134 1382.88372375219 C 1472.6381594777 1379.9746328431 1477.93361402316 1378.52008738855 1483.8881594777 1378.52008738855 C 1489.84270493225 1378.52008738855 1495.1381594777 1379.9746328431 1499.77452311407 1382.88372375219 C 1504.41088675043 1385.79281466128 1508.05861402316 1389.92917829764 1510.71770493225 1395.29281466128 C 1513.37679584134 1400.65645102492 1514.70634129589 1407.02008738855 1514.70634129589 1414.38372375219 Z M 1506.52452311407 1414.38372375219 C 1506.52452311407 1408.33826920673 1505.51884129589 1403.23599647946 1503.50747765952 1399.07690557037 C 1501.49611402316 1394.91781466128 1498.78020493225 1391.77008738855 1495.35975038679 1389.63372375219 C 1491.93929584134 1387.49736011583 1488.11543220498 1386.42917829764 1483.8881594777 1386.42917829764 C 1479.66088675043 1386.42917829764 1475.83702311407 1387.49736011583 1472.41656856861 1389.63372375219 C 1468.99611402316 1391.77008738855 1466.28020493225 1394.91781466128 1464.26884129589 1399.07690557037 C 1462.25747765952 1403.23599647946 1461.25179584134 1408.33826920673 1461.25179584134 1414.38372375219 C 1461.25179584134 1420.42917829764 1462.25747765952 1425.53145102492 1464.26884129589 1429.69054193401 C 1466.28020493225 1433.8496328431 1468.99611402316 1436.99736011583 1472.41656856861 1439.13372375219 C 1475.83702311407 1441.27008738855 1479.66088675043 1442.33826920673 1483.8881594777 1442.33826920673 C 1488.11543220498 1442.33826920673 1491.93929584134 1441.27008738855 1495.35975038679 1439.13372375219 C 1498.78020493225 1436.99736011583 1501.49611402316 1433.8496328431 1503.50747765952 1429.69054193401 C 1505.51884129589 1425.53145102492 1506.52452311407 1420.42917829764 1506.52452311407 1414.38372375219 Z M 1533.27906856861 1379.4746328431 L 1554.00634129589 1438.24736011583 L 1554.82452311407 1438.24736011583 L 1575.55179584134 1379.4746328431 L 1584.41543220498 1379.4746328431 L 1558.77906856861 1449.29281466128 L 1550.05179584134 1449.29281466128 L 1524.41543220498 1379.4746328431 L 1533.27906856861 1379.4746328431 Z M 1600.12452311407 1449.29281466128 L 1600.12452311407 1379.4746328431 L 1642.26088675043 1379.4746328431 L 1642.26088675043 1386.9746328431 L 1608.57906856861 1386.9746328431 L 1608.57906856861 1410.56554193401 L 1640.07906856861 1410.56554193401 L 1640.07906856861 1418.06554193401 L 1608.57906856861 1418.06554193401 L 1608.57906856861 1441.79281466128 L 1642.80634129589 1441.79281466128 L 1642.80634129589 1449.29281466128 L 1600.12452311407 1449.29281466128 Z M 1662.33361402316 1379.4746328431 L 1672.42452311407 1379.4746328431 L 1696.15179584134 1437.42917829764 L 1696.96997765952 1437.42917829764 L 1720.69725038679 1379.4746328431 L 1730.7881594777 1379.4746328431 L 1730.7881594777 1449.29281466128 L 1722.87906856861 1449.29281466128 L 1722.87906856861 1396.24736011583 L 1722.19725038679 1396.24736011583 L 1700.37906856861 1449.29281466128 L 1692.74270493225 1449.29281466128 L 1670.92452311407 1396.24736011583 L 1670.24270493225 1396.24736011583 L 1670.24270493225 1449.29281466128 L 1662.33361402316 1449.29281466128 L 1662.33361402316 1379.4746328431 Z M 1752.49725038679 1449.29281466128 L 1752.49725038679 1379.4746328431 L 1794.63361402316 1379.4746328431 L 1794.63361402316 1386.9746328431 L 1760.95179584134 1386.9746328431 L 1760.95179584134 1410.56554193401 L 1792.45179584134 1410.56554193401 L 1792.45179584134 1418.06554193401 L 1760.95179584134 1418.06554193401 L 1760.95179584134 1441.79281466128 L 1795.17906856861 1441.79281466128 L 1795.17906856861 1449.29281466128 L 1752.49725038679 1449.29281466128 Z M 1870.06997765952 1379.4746328431 L 1870.06997765952 1449.29281466128 L 1861.8881594777 1449.29281466128 L 1823.84270493225 1394.4746328431 L 1823.16088675043 1394.4746328431 L 1823.16088675043 1449.29281466128 L 1814.70634129589 1449.29281466128 L 1814.70634129589 1379.4746328431 L 1822.8881594777 1379.4746328431 L 1861.06997765952 1434.42917829764 L 1861.75179584134 1434.42917829764 L 1861.75179584134 1379.4746328431 L 1870.06997765952 1379.4746328431 Z M 1887.96088675043 1386.9746328431 L 1887.96088675043 1379.4746328431 L 1940.32452311407 1379.4746328431 L 1940.32452311407 1386.9746328431 L 1918.36997765952 1386.9746328431 L 1918.36997765952 1449.29281466128 L 1909.91543220498 1449.29281466128 L 1909.91543220498 1386.9746328431 L 1887.96088675043 1386.9746328431 Z M 1996.39725038679 1396.92917829764 C 1995.9881594777 1393.4746328431 1994.32906856861 1390.79281466128 1991.41997765952 1388.88372375219 C 1988.51088675043 1386.9746328431 1984.94270493225 1386.02008738855 1980.71543220498 1386.02008738855 C 1977.62452311407 1386.02008738855 1974.9256594777 1386.52008738855 1972.61884129589 1387.52008738855 C 1970.31202311407 1388.52008738855 1968.51656856861 1389.89508738855 1967.23247765952 1391.64508738855 C 1965.94838675043 1393.39508738855 1965.30634129589 1395.38372375219 1965.30634129589 1397.61099647946 C 1965.30634129589 1399.4746328431 1965.75520493225 1401.07122375219 1966.65293220498 1402.40076920673 C 1967.5506594777 1403.73031466128 1968.70406856861 1404.83258738855 1970.1131594777 1405.70758738855 C 1971.52225038679 1406.58258738855 1972.99952311407 1407.29849647946 1974.54497765952 1407.85531466128 C 1976.09043220498 1408.4121328431 1977.51088675043 1408.86099647946 1978.80634129589 1409.20190557037 L 1985.89725038679 1411.11099647946 C 1987.71543220498 1411.58826920673 1989.74384129589 1412.24736011583 1991.98247765952 1413.08826920673 C 1994.22111402316 1413.92917829764 1996.36884129589 1415.07122375219 1998.4256594777 1416.51440557037 C 2000.48247765952 1417.95758738855 2002.18134129589 1419.80417829764 2003.52225038679 1422.05417829764 C 2004.8631594777 1424.30417829764 2005.53361402316 1427.06554193401 2005.53361402316 1430.33826920673 C 2005.53361402316 1434.11099647946 2004.5506594777 1437.52008738855 2002.58475038679 1440.56554193401 C 2000.61884129589 1443.61099647946 1997.75520493225 1446.03145102492 1993.99384129589 1447.82690557037 C 1990.23247765952 1449.62236011583 1985.66997765952 1450.52008738855 1980.30634129589 1450.52008738855 C 1975.30634129589 1450.52008738855 1970.98247765952 1449.71326920673 1967.33475038679 1448.0996328431 C 1963.68702311407 1446.48599647946 1960.82338675043 1444.23599647946 1958.74384129589 1441.3496328431 C 1956.66429584134 1438.46326920673 1955.4881594777 1435.11099647946 1955.21543220498 1431.29281466128 L 1963.94270493225 1431.29281466128 C 1964.16997765952 1433.92917829764 1965.06202311407 1436.10531466128 1966.61884129589 1437.82122375219 C 1968.1756594777 1439.5371328431 1970.15293220498 1440.80986011583 1972.5506594777 1441.63940557037 C 1974.94838675043 1442.46895102492 1977.53361402316 1442.88372375219 1980.30634129589 1442.88372375219 C 1983.53361402316 1442.88372375219 1986.43134129589 1442.35531466128 1988.99952311407 1441.29849647946 C 1991.56770493225 1440.24167829764 1993.60179584134 1438.76440557037 1995.10179584134 1436.86667829764 C 1996.60179584134 1434.96895102492 1997.35179584134 1432.74736011583 1997.35179584134 1430.20190557037 C 1997.35179584134 1427.88372375219 1996.70406856861 1425.99736011583 1995.40861402316 1424.54281466128 C 1994.1131594777 1423.08826920673 1992.40861402316 1421.90645102492 1990.29497765952 1420.99736011583 C 1988.18134129589 1420.08826920673 1985.89725038679 1419.29281466128 1983.44270493225 1418.61099647946 L 1974.85179584134 1416.15645102492 C 1969.39725038679 1414.58826920673 1965.07906856861 1412.3496328431 1961.89725038679 1409.44054193401 C 1958.71543220498 1406.53145102492 1957.12452311407 1402.7246328431 1957.12452311407 1398.02008738855 C 1957.12452311407 1394.11099647946 1958.18702311407 1390.69622375219 1960.31202311407 1387.77576920673 C 1962.43702311407 1384.85531466128 1965.3006594777 1382.58258738855 1968.90293220498 1380.95758738855 C 1972.50520493225 1379.33258738855 1976.53361402316 1378.52008738855 1980.9881594777 1378.52008738855 C 1985.4881594777 1378.52008738855 1989.4881594777 1379.32122375219 1992.9881594777 1380.92349647946 C 1996.4881594777 1382.52576920673 1999.26656856861 1384.71326920673 2001.32338675043 1387.48599647946 C 2003.38020493225 1390.25872375219 2004.46543220498 1393.40645102492 2004.57906856861 1396.92917829764 L 1996.39725038679 1396.92917829764 Z"/></svg>